#!OML:ASF H:\Terrain\Patient Classification 1\Terrain2\Thursday\justin.ASF
:FULLY-SPECIFIED
:DEGREES
1348
root 8.64452 24.2148 8.61048 -364.013 -5.93868 -1.33733
lowerback 8.34814 -0.439285 -0.879846
upperback 2.22447 -0.612448 1.75773
thorax -2.34837 -0.304305 2.37364
lowerneck -13.0536 0.654219 -6.89822
upperneck 40.2465 2.43625 1.66069
head 16.6217 0.139675 2.3896
rclavicle 3.13334e-014 1.43125e-014
rhumerus -35.1924 -4.8497 -80.0336
rradius 42.1337
rwrist -12.3188
rhand -18.6556 14.8642
rfingers 7.12502
rthumb 7.63761 -14.9779
lclavicle 3.13334e-014 1.43125e-014
lhumerus -34.6025 0.645542 84.655
lradius 43.2972
lwrist 7.04985
lhand -15.3244 23.5977
lfingers 7.12502
lthumb 10.8519 53.2973
rfemur -23.2298 -12.1135 19.3196
rtibia 90.5915
rfoot -14.4852 -2.74338
rtoes 7.83078
lfemur -3.1877 2.91935 -19.7428
ltibia 16.1189
lfoot -4.47498 -9.95461
ltoes 8.10778
1349
root 8.64699 24.2073 8.62785 -363.784 -5.83938 -1.47614
lowerback 8.46478 -0.536691 -0.783693
upperback 2.21638 -0.731532 1.83141
thorax -2.41596 -0.363316 2.40975
lowerneck -13.2173 0.693967 -6.8337
upperneck 40.2216 2.51808 1.59025
head 16.647 0.172789 2.36258
rclavicle -6.78353e-015 -1.98785e-015
rhumerus -34.9213 -4.75995 -79.9942
rradius 42.5004
rwrist -12.3915
rhand -18.6822 15.4242
rfingers 7.12502
rthumb 7.61195 -14.4188
lclavicle -6.78353e-015 -1.98785e-015
lhumerus -34.2195 0.0201673 84.6952
lradius 43.8767
lwrist 7.34869
lhand -14.9073 23.4905
lfingers 7.12502
lthumb 11.2542 53.1686
rfemur -24.2804 -12.4335 19.8104
rtibia 89.1896
rfoot -12.6141 -3.74731
rtoes -0.899459
lfemur -3.60231 3.1094 -19.6314
ltibia 16.5436
lfoot -4.79181 -10.1897
ltoes 7.48562
1350
root 8.6502 24.1997 8.64787 -363.581 -5.63916 -1.2482
lowerback 8.52001 -0.601889 -1.01931
upperback 2.18124 -0.839089 1.79023
thorax -2.47488 -0.415075 2.5124
lowerneck -13.3939 0.661185 -6.78486
upperneck 40.3998 2.47092 1.59197
head 16.7926 0.152276 2.3547
rclavicle -1.10077e-014 1.98785e-015
rhumerus -34.7128 -4.74845 -79.9446
rradius 42.9404
rwrist -12.5324
rhand -18.8517 15.3859
rfingers 7.12502
rthumb 7.4483 -14.463
lclavicle -1.10077e-014 1.98785e-015
lhumerus -34.0439 -0.601361 84.8635
lradius 44.4534
lwrist 8.20094
lhand -15.675 22.5433
lfingers 7.12502
lthumb 10.5137 52.2604
rfemur -24.9965 -12.5443 19.6135
rtibia 87.8638
rfoot -11.8549 -3.38852
rtoes -0.645666
lfemur -4.03277 3.23403 -19.9203
ltibia 16.9198
lfoot -4.92699 -10.5194
ltoes 8.83784
1351
root 8.65334 24.1863 8.66735 -363.38 -5.36907 -0.643885
lowerback 8.50557 -0.682893 -1.62304
upperback 2.14182 -1.00247 1.64883
thorax -2.49105 -0.493334 2.72352
lowerneck -13.4362 0.615237 -6.68297
upperneck 40.3835 2.42679 1.44685
head 16.8031 0.128952 2.26398
rclavicle 3.10601e-015 7.55382e-015
rhumerus -34.5871 -4.844 -79.861
rradius 43.5003
rwrist -12.6212
rhand -19.1514 15.4593
rfingers 7.12502
rthumb 7.15899 -14.3996
lclavicle 3.10601e-015 7.55382e-015
lhumerus -33.8952 -0.840688 84.8341
lradius 45.2506
lwrist 8.28541
lhand -15.9145 22.0131
lfingers 7.12502
lthumb 10.2826 51.7418
rfemur -25.6519 -12.3615 18.9158
rtibia 86.5937
rfoot -11.8436 -2.50571
rtoes 4.28048
lfemur -4.44655 3.25709 -20.6289
ltibia 17.1899
lfoot -4.98384 -10.8413
ltoes 10.9542
1352
root 8.65405 24.1713 8.68526 -363.196 -5.16678 0.0321516
lowerback 8.49258 -0.751962 -2.34598
upperback 2.16174 -1.16041 1.51324
thorax -2.4416 -0.570016 3.00657
lowerneck -13.5305 0.630796 -6.60148
upperneck 40.2059 2.49088 1.28813
head 16.7319 0.151429 2.18633
rclavicle -3.8117e-014 1.35174e-014
rhumerus -34.3695 -4.87451 -79.7645
rradius 44.0302
rwrist -12.8101
rhand -19.2368 15.6655
rfingers 7.12502
rthumb 7.07654 -14.1962
lclavicle -3.8117e-014 1.35174e-014
lhumerus -33.3926 -0.876212 84.6318
lradius 45.7963
lwrist 7.49279
lhand -14.7972 22.7779
lfingers 7.12502
lthumb 11.3603 52.4502
rfemur -26.3411 -12.179 18.2558
rtibia 85.2081
rfoot -11.8844 -2.17418
rtoes 5.34031
lfemur -4.88874 3.25222 -21.4429
ltibia 17.6259
lfoot -5.36014 -10.901
ltoes 9.96951
1353
root 8.65341 24.16 8.70606 -363.044 -4.92506 0.295336
lowerback 8.55481 -0.836972 -2.65781
upperback 2.19222 -1.30187 1.49985
thorax -2.42767 -0.639929 3.18416
lowerneck -13.7024 0.647482 -6.64545
upperneck 40.1984 2.55203 1.27414
head 16.7682 0.16702 2.20119
rclavicle 8.3738e-015 -6.75868e-015
rhumerus -34.1632 -5.01978 -79.6025
rradius 44.6134
rwrist -13.1377
rhand -18.947 15.3726
rfingers 7.12502
rthumb 7.35626 -14.4795
lclavicle 8.3738e-015 -6.75868e-015
lhumerus -32.9131 -1.10445 84.5713
lradius 46.0895
lwrist 6.5066
lhand -14.3235 23.1216
lfingers 7.12502
lthumb 11.8171 52.7682
rfemur -26.7671 -12.1539 18.086
rtibia 83.6227
rfoot -12.0883 -2.30272
rtoes 4.33313
lfemur -5.38061 3.2071 -21.778
ltibia 18.3664
lfoot -5.85766 -10.9557
ltoes 8.54549
